{
.appVersion = "118";
DisplayStrings = (
"fvno\012Franz/space jagt/space im/space komplett/space verwahrlosten/space Taxi/space quer/space durch/space Bayern",
"AÄBCDEF/space GHIJKMNOÖPQRSTUÜVWXYZß\012\0120123456789\012\012aäbcdefghijklmnoöpqrstuüvwxyz\012.,-;?!",
"9",
"0",
"1",
"2",
"3",
"4",
"5",
"6",
"7",
"8",
"AÄBCDEFGHIJKLMNOÖPQRSTUÜVWXYZaäbcdefghijklmnoöpqrsßtuüvwxyz0123456789.,;!?-/space/dieresiscomb/unbenannt"
);
copyright = "Copyright © 2022 by Florian Hannich.";
date = "2022-03-14 10:48:53 +0000";
designer = "Florian Hannich";
designerURL = "https://florianhannich.com";
familyName = Base;
featurePrefixes = (
{
automatic = 1;
code = "languagesystem DFLT dflt;\012";
name = Languagesystems;
}
);
fontMaster = (
{
alignmentZones = (
"{716, 15}",
"{517, 13}",
"{0, -15}",
"{-166, -16}"
);
ascender = 775;
capHeight = 715;
descender = -166;
horizontalStems = (
62,
68
);
id = "9DF75A15-0AF9-4389-BE6D-DBD1DB18A6A2";
userData = {
GSOffsetHorizontal = 3;
GSOffsetVertical = 3;
};
verticalStems = (
74,
81
);
weightValue = 0;
widthValue = 0;
xHeight = 510;
}
);
glyphs = (
{
glyphname = A;
lastChange = "2022-03-21 10:20:34 +0000";
layers = (
{
guideLines = (
{
position = "{-170, 470}";
}
);
layerId = "9DF75A15-0AF9-4389-BE6D-DBD1DB18A6A2";
paths = (
{
closed = 1;
nodes = (
"616 0 LINE",
"354 715 LINE",
"272 715 LINE",
"10 0 LINE",
"91 0 LINE",
"169 212 LINE",
"457 212 LINE",
"535 0 LINE"
);
},
{
closed = 1;
nodes = (
"263 470 LINE SMOOTH",
"276 506 OFFCURVE",
"297 571 OFFCURVE",
"313 624 CURVE",
"329 571 OFFCURVE",
"350 506 OFFCURVE",
"363 470 CURVE SMOOTH",
"429 291 LINE",
"197 291 LINE"
);
}
);
width = 626;
}
);
leftMetricsKey = V;
rightMetricsKey = V;
unicode = 0041;
},
{
glyphname = B;
lastChange = "2022-03-21 10:20:34 +0000";
layers = (
{
guideLines = (
{
position = "{-33, 327}";
},
{
angle = 90;
position = "{623, 599}";
}
);
layerId = "9DF75A15-0AF9-4389-BE6D-DBD1DB18A6A2";
paths = (
{
closed = 1;
nodes = (
"407 0 LINE SMOOTH",
"537 0 OFFCURVE",
"610 94 OFFCURVE",
"610 208 CURVE SMOOTH",
"610 300 OFFCURVE",
"559 359 OFFCURVE",
"476 381 CURVE",
"543 404 OFFCURVE",
"584 457 OFFCURVE",
"584 531 CURVE SMOOTH",
"584 632 OFFCURVE",
"517 715 OFFCURVE",
"403 715 CURVE SMOOTH",
"75 715 LINE",
"75 0 LINE"
);
},
{
closed = 1;
nodes = (
"160 341 LINE",
"385 341 LINE SMOOTH",
"466 341 OFFCURVE",
"525 280 OFFCURVE",
"525 207 CURVE SMOOTH",
"525 134 OFFCURVE",
"478 74 OFFCURVE",
"394 74 CURVE SMOOTH",
"160 74 LINE"
);
},
{
closed = 1;
nodes = (
"160 640 LINE",
"386 641 LINE SMOOTH",
"456 641 OFFCURVE",
"499 591 OFFCURVE",
"499 528 CURVE SMOOTH",
"499 467 OFFCURVE",
"449 416 OFFCURVE",
"377 416 CURVE SMOOTH",
"160 416 LINE"
);
}
);
width = 655;
}
);
leftMetricsKey = H;
rightMetricsKey = O;
unicode = 0042;
},
{
glyphname = C;
lastChange = "2022-03-21 10:20:34 +0000";
layers = (
{
layerId = "9DF75A15-0AF9-4389-BE6D-DBD1DB18A6A2";
paths = (
{
closed = 1;
nodes = (
"560 -15 OFFCURVE",
"666 93 OFFCURVE",
"693 243 CURVE",
"604 243 LINE",
"586 135 OFFCURVE",
"513 64 OFFCURVE",
"392 64 CURVE SMOOTH",
"226 64 OFFCURVE",
"136 195 OFFCURVE",
"136 356 CURVE SMOOTH",
"136 519 OFFCURVE",
"223 650 OFFCURVE",
"390 650 CURVE SMOOTH",
"500 650 OFFCURVE",
"576 591 OFFCURVE",
"598 494 CURVE",
"691 494 LINE",
"658 633 OFFCURVE",
"553 731 OFFCURVE",
"388 731 CURVE SMOOTH",
"176 731 OFFCURVE",
"45 563 OFFCURVE",
"45 357 CURVE SMOOTH",
"45 152 OFFCURVE",
"176 -15 OFFCURVE",
"388 -15 CURVE SMOOTH"
);
}
);
width = 738;
}
);
leftMetricsKey = O;
rightMetricsKey = O;
unicode = 0043;
},
{
glyphname = D;
lastChange = "2022-03-21 10:20:34 +0000";
layers = (
{
layerId = "9DF75A15-0AF9-4389-BE6D-DBD1DB18A6A2";
paths = (
{
closed = 1;
nodes = (
"343 0 LINE SMOOTH",
"547 0 OFFCURVE",
"671 161 OFFCURVE",
"671 358 CURVE SMOOTH",
"671 555 OFFCURVE",
"550 717 OFFCURVE",
"343 716 CURVE SMOOTH",
"75 715 LINE",
"75 0 LINE"
);
},
{
closed = 1;
nodes = (
"160 641 LINE",
"337 641 LINE SMOOTH",
"495 641 OFFCURVE",
"581 510 OFFCURVE",
"581 357 CURVE SMOOTH",
"581 206 OFFCURVE",
"492 74 OFFCURVE",
"340 74 CURVE SMOOTH",
"160 74 LINE"
);
}
);
width = 716;
}
);
leftMetricsKey = H;
rightMetricsKey = O;
unicode = 0044;
},
{
glyphname = E;
lastChange = "2022-03-21 10:20:34 +0000";
layers = (
{
layerId = "9DF75A15-0AF9-4389-BE6D-DBD1DB18A6A2";
paths = (
{
closed = 1;
nodes = (
"536 0 LINE",
"536 75 LINE",
"260 75 LINE SMOOTH",
"227 75 OFFCURVE",
"160 73 OFFCURVE",
"160 73 CURVE",
"160 324 LINE",
"160 324 OFFCURVE",
"227 323 OFFCURVE",
"260 323 CURVE SMOOTH",
"516 323 LINE",
"516 399 LINE",
"260 399 LINE SMOOTH",
"227 399 OFFCURVE",
"160 397 OFFCURVE",
"160 397 CURVE",
"160 642 LINE",
"160 642 OFFCURVE",
"227 640 OFFCURVE",
"260 640 CURVE SMOOTH",
"526 640 LINE",
"526 715 LINE",
"75 715 LINE",
"75 0 LINE"
);
}
);
width = 571;
}
);
leftMetricsKey = H;
rightMetricsKey = o;
unicode = 0045;
},
{
glyphname = F;
lastChange = "2022-03-21 10:20:34 +0000";
layers = (
{
layerId = "9DF75A15-0AF9-4389-BE6D-DBD1DB18A6A2";
paths = (
{
closed = 1;
nodes = (
"160 0 LINE",
"160 324 LINE",
"160 324 OFFCURVE",
"227 323 OFFCURVE",
"260 323 CURVE SMOOTH",
"516 323 LINE",
"516 399 LINE",
"260 399 LINE SMOOTH",
"227 399 OFFCURVE",
"160 397 OFFCURVE",
"160 397 CURVE",
"160 642 LINE",
"160 642 OFFCURVE",
"227 640 OFFCURVE",
"260 640 CURVE SMOOTH",
"526 640 LINE",
"526 715 LINE",
"75 715 LINE",
"75 0 LINE"
);
}
);
width = 561;
}
);
leftMetricsKey = H;
rightMetricsKey = o;
unicode = 0046;
},
{
glyphname = G;
lastChange = "2022-03-21 10:20:34 +0000";
layers = (
{
guideLines = (
{
position = "{851, 494}";
}
);
layerId = "9DF75A15-0AF9-4389-BE6D-DBD1DB18A6A2";
paths = (
{
closed = 1;
nodes = (
"490 -15 OFFCURVE",
"597 49 OFFCURVE",
"634 156 CURVE",
"633 98 OFFCURVE",
"629 0 OFFCURVE",
"629 0 CURVE",
"704 0 LINE",
"704 379 LINE",
"399 379 LINE",
"399 304 LINE",
"516 304 LINE SMOOTH",
"552 304 OFFCURVE",
"604 307 OFFCURVE",
"613 307 CURVE",
"600 169 OFFCURVE",
"512 58 OFFCURVE",
"388 58 CURVE SMOOTH",
"229 58 OFFCURVE",
"136 197 OFFCURVE",
"136 356 CURVE SMOOTH",
"136 517 OFFCURVE",
"228 656 OFFCURVE",
"388 656 CURVE SMOOTH",
"503 656 OFFCURVE",
"568 589 OFFCURVE",
"597 494 CURVE",
"687 494 LINE",
"650 632 OFFCURVE",
"552 730 OFFCURVE",
"388 730 CURVE SMOOTH",
"177 730 OFFCURVE",
"45 563 OFFCURVE",
"45 357 CURVE SMOOTH",
"45 152 OFFCURVE",
"167 -15 OFFCURVE",
"378 -15 CURVE SMOOTH"
);
}
);
width = 779;
}
);
leftMetricsKey = O;
rightMetricsKey = H;
unicode = 0047;
},
{
glyphname = H;
lastChange = "2022-03-21 10:20:34 +0000";
layers = (
{
layerId = "9DF75A15-0AF9-4389-BE6D-DBD1DB18A6A2";
paths = (
{
closed = 1;
nodes = (
"637 0 LINE",
"637 715 LINE",
"552 715 LINE",
"552 404 LINE",
"552 404 OFFCURVE",
"501 406 OFFCURVE",
"465 406 CURVE SMOOTH",
"251 406 LINE SMOOTH",
"215 406 OFFCURVE",
"160 404 OFFCURVE",
"160 404 CURVE",
"160 715 LINE",
"75 715 LINE",
"75 0 LINE",
"160 0 LINE",
"160 333 LINE",
"160 333 OFFCURVE",
"215 331 OFFCURVE",
"251 331 CURVE SMOOTH",
"465 331 LINE SMOOTH",
"501 331 OFFCURVE",
"552 333 OFFCURVE",
"552 333 CURVE",
"552 0 LINE"
);
}
);
width = 712;
}
);
unicode = 0048;
},
{
glyphname = I;
lastChange = "2022-03-21 10:20:34 +0000";
layers = (
{
layerId = "9DF75A15-0AF9-4389-BE6D-DBD1DB18A6A2";
paths = (
{
closed = 1;
nodes = (
"159 0 LINE",
"159 715 LINE",
"75 715 LINE",
"75 0 LINE"
);
}
);
width = 234;
}
);
leftMetricsKey = H;
rightMetricsKey = H;
unicode = 0049;
},
{
glyphname = J;
lastChange = "2022-03-21 10:20:34 +0000";
layers = (
{
layerId = "9DF75A15-0AF9-4389-BE6D-DBD1DB18A6A2";
paths = (
{
closed = 1;
nodes = (
"358 -16 OFFCURVE",
"426 76 OFFCURVE",
"426 211 CURVE SMOOTH",
"427 715 LINE",
"342 715 LINE",
"342 198 LINE SMOOTH",
"342 109 OFFCURVE",
"309 53 OFFCURVE",
"219 53 CURVE SMOOTH",
"129 53 OFFCURVE",
"95 111 OFFCURVE",
"95 191 CURVE",
"10 191 LINE",
"10 78 OFFCURVE",
"80 -16 OFFCURVE",
"219 -16 CURVE SMOOTH"
);
}
);
width = 502;
}
);
leftMetricsKey = V;
rightMetricsKey = H;
unicode = 004A;
},
{
glyphname = K;
lastChange = "2022-03-21 10:20:34 +0000";
layers = (
{
layerId = "9DF75A15-0AF9-4389-BE6D-DBD1DB18A6A2";
paths = (
{
closed = 1;
nodes = (
"160 0 LINE",
"160 251 LINE",
"282 376 LINE",
"555 1 LINE",
"651 1 LINE",
"336 431 LINE",
"616 716 LINE",
"512 716 LINE",
"160 357 LINE",
"160 717 LINE",
"76 717 LINE",
"75 0 LINE"
);
}
);
width = 651;
}
);
leftMetricsKey = H;
unicode = 004B;
},
{
glyphname = L;
lastChange = "2022-03-21 10:20:34 +0000";
layers = (
{
layerId = "9DF75A15-0AF9-4389-BE6D-DBD1DB18A6A2";
paths = (
{
closed = 1;
nodes = (
"525 0 LINE",
"525 75 LINE",
"260 75 LINE SMOOTH",
"227 75 OFFCURVE",
"160 73 OFFCURVE",
"160 73 CURVE",
"160 715 LINE",
"75 715 LINE",
"75 0 LINE"
);
}
);
width = 535;
}
);
leftMetricsKey = H;
rightMetricsKey = V;
unicode = 004C;
},
{
glyphname = M;
lastChange = "2022-03-21 10:20:34 +0000";
layers = (
{
guideLines = (
{
position = "{-157, 441}";
}
);
layerId = "9DF75A15-0AF9-4389-BE6D-DBD1DB18A6A2";
paths = (
{
closed = 1;
nodes = (
"500 0 LINE",
"694 441 LINE SMOOTH",
"705 465 OFFCURVE",
"727 517 OFFCURVE",
"748 570 CURVE",
"748 0 LINE",
"837 0 LINE",
"837 715 LINE",
"734 715 LINE",
"522 240 LINE SMOOTH",
"504 199 OFFCURVE",
"479 136 OFFCURVE",
"459 85 CURVE",
"439 136 OFFCURVE",
"414 199 OFFCURVE",
"396 240 CURVE SMOOTH",
"184 715 LINE",
"75 715 LINE",
"75 0 LINE",
"164 0 LINE",
"164 586 LINE",
"187 528 OFFCURVE",
"212 468 OFFCURVE",
"224 441 CURVE SMOOTH",
"418 0 LINE"
);
}
);
width = 912;
}
);
leftMetricsKey = H;
rightMetricsKey = H;
unicode = 004D;
},
{
glyphname = N;
lastChange = "2022-03-21 10:20:34 +0000";
layers = (
{
guideLines = (
{
position = "{-108, 454}";
},
{
position = "{-52, 238}";
}
);
layerId = "9DF75A15-0AF9-4389-BE6D-DBD1DB18A6A2";
paths = (
{
closed = 1;
nodes = (
"607 0 LINE",
"607 715 LINE",
"522 715 LINE",
"522 132 LINE",
"501 170 OFFCURVE",
"479 209 OFFCURVE",
"461 238 CURVE SMOOTH",
"160 715 LINE",
"75 715 LINE",
"75 0 LINE",
"160 0 LINE",
"160 584 LINE",
"185 538 OFFCURVE",
"213 489 OFFCURVE",
"235 454 CURVE SMOOTH",
"522 0 LINE"
);
}
);
width = 682;
}
);
leftMetricsKey = H;
rightMetricsKey = H;
unicode = 004E;
},
{
glyphname = O;
lastChange = "2022-03-21 10:20:34 +0000";
layers = (
{
layerId = "9DF75A15-0AF9-4389-BE6D-DBD1DB18A6A2";
paths = (
{
closed = 1;
nodes = (
"600 -15 OFFCURVE",
"730 152 OFFCURVE",
"730 357 CURVE SMOOTH",
"730 563 OFFCURVE",
"603 730 OFFCURVE",
"388 730 CURVE SMOOTH",
"177 730 OFFCURVE",
"45 563 OFFCURVE",
"45 357 CURVE SMOOTH",
"45 152 OFFCURVE",
"177 -15 OFFCURVE",
"388 -15 CURVE SMOOTH"
);
},
{
closed = 1;
nodes = (
"136 517 OFFCURVE",
"228 656 OFFCURVE",
"388 656 CURVE SMOOTH",
"553 656 OFFCURVE",
"641 517 OFFCURVE",
"641 356 CURVE SMOOTH",
"641 197 OFFCURVE",
"549 58 OFFCURVE",
"388 58 CURVE SMOOTH",
"229 58 OFFCURVE",
"136 197 OFFCURVE",
"136 356 CURVE SMOOTH"
);
}
);
width = 775;
}
);
unicode = 004F;
},
{
glyphname = P;
lastChange = "2022-03-21 10:20:34 +0000";
layers = (
{
layerId = "9DF75A15-0AF9-4389-BE6D-DBD1DB18A6A2";
paths = (
{
closed = 1;
nodes = (
"402 275 LINE SMOOTH",
"527 275 OFFCURVE",
"603 374 OFFCURVE",
"603 495 CURVE SMOOTH",
"603 616 OFFCURVE",
"529 715 OFFCURVE",
"402 715 CURVE SMOOTH",
"75 715 LINE",
"75 0 LINE",
"160 0 LINE",
"160 275 LINE"
);
},
{
closed = 1;
nodes = (
"160 640 LINE",
"392 640 LINE SMOOTH",
"475 640 OFFCURVE",
"520 575 OFFCURVE",
"520 494 CURVE SMOOTH",
"520 414 OFFCURVE",
"472 349 OFFCURVE",
"392 349 CURVE SMOOTH",
"160 350 LINE"
);
}
);
width = 648;
}
);
leftMetricsKey = H;
rightMetricsKey = O;
unicode = 0050;
},
{
glyphname = Q;
lastChange = "2022-03-21 10:20:34 +0000";
layers = (
{
layerId = "9DF75A15-0AF9-4389-BE6D-DBD1DB18A6A2";
paths = (
{
closed = 1;
nodes = (
"434 -15 OFFCURVE",
"475 -7 OFFCURVE",
"513 7 CURVE",
"560 -60 LINE",
"652 -60 LINE",
"580 42 LINE",
"676 108 OFFCURVE",
"730 224 OFFCURVE",
"730 357 CURVE SMOOTH",
"730 563 OFFCURVE",
"603 730 OFFCURVE",
"388 730 CURVE SMOOTH",
"177 730 OFFCURVE",
"45 563 OFFCURVE",
"45 357 CURVE SMOOTH",
"45 152 OFFCURVE",
"177 -15 OFFCURVE",
"388 -15 CURVE SMOOTH"
);
},
{
closed = 1;
nodes = (
"136 517 OFFCURVE",
"228 656 OFFCURVE",
"388 656 CURVE SMOOTH",
"553 656 OFFCURVE",
"641 517 OFFCURVE",
"641 356 CURVE SMOOTH",
"641 254 OFFCURVE",
"603 161 OFFCURVE",
"534 107 CURVE",
"485 177 LINE",
"394 177 LINE",
"468 71 LINE",
"444 62 OFFCURVE",
"417 58 OFFCURVE",
"388 58 CURVE SMOOTH",
"229 58 OFFCURVE",
"136 197 OFFCURVE",
"136 356 CURVE SMOOTH"
);
}
);
width = 775;
}
);
leftMetricsKey = O;
rightMetricsKey = O;
unicode = 0051;
},
{
glyphname = R;
lastChange = "2022-03-21 10:20:34 +0000";
layers = (
{
layerId = "9DF75A15-0AF9-4389-BE6D-DBD1DB18A6A2";
paths = (
{
closed = 1;
nodes = (
"359 275 LINE",
"551 0 LINE",
"643 0 LINE",
"447 280 LINE",
"545 300 OFFCURVE",
"603 389 OFFCURVE",
"603 495 CURVE SMOOTH",
"603 616 OFFCURVE",
"529 715 OFFCURVE",
"402 715 CURVE SMOOTH",
"75 715 LINE",
"75 0 LINE",
"160 0 LINE",
"160 275 LINE"
);
},
{
closed = 1;
nodes = (
"160 640 LINE",
"392 640 LINE SMOOTH",
"475 640 OFFCURVE",
"520 575 OFFCURVE",
"520 494 CURVE SMOOTH",
"520 414 OFFCURVE",
"472 349 OFFCURVE",
"392 349 CURVE SMOOTH",
"160 350 LINE"
);
}
);
width = 688;
}
);
leftMetricsKey = H;
rightMetricsKey = O;
unicode = 0052;
},
{
glyphname = S;
lastChange = "2022-03-21 10:20:34 +0000";
layers = (
{
guideLines = (
{
angle = 90;
position = "{530, 494}";
},
{
angle = 90;
position = "{130, 335}";
}
);
layerId = "9DF75A15-0AF9-4389-BE6D-DBD1DB18A6A2";
paths = (
{
closed = 1;
nodes = (
"520 -21 OFFCURVE",
"637 61 OFFCURVE",
"637 195 CURVE SMOOTH",
"637 348 OFFCURVE",
"518 378 OFFCURVE",
"375 411 CURVE SMOOTH",
"249 442 OFFCURVE",
"156 470 OFFCURVE",
"156 547 CURVE SMOOTH",
"156 609 OFFCURVE",
"225 658 OFFCURVE",
"327 658 CURVE SMOOTH",
"435 658 OFFCURVE",
"516 617 OFFCURVE",
"530 509 CURVE",
"615 508 LINE",
"598 651 OFFCURVE",
"494 731 OFFCURVE",
"344 731 CURVE SMOOTH",
"166 731 OFFCURVE",
"69 652 OFFCURVE",
"69 535 CURVE SMOOTH",
"69 400 OFFCURVE",
"201 367 OFFCURVE",
"338 337 CURVE SMOOTH",
"486 301 OFFCURVE",
"551 266 OFFCURVE",
"550 190 CURVE SMOOTH",
"549 112 OFFCURVE",
"468 53 OFFCURVE",
"364 56 CURVE SMOOTH",
"261 59 OFFCURVE",
"149 91 OFFCURVE",
"130 235 CURVE",
"45 236 LINE",
"58 77 OFFCURVE",
"175 -11 OFFCURVE",
"344 -16 CURVE SMOOTH"
);
}
);
width = 682;
}
);
leftMetricsKey = O;
rightMetricsKey = O;
unicode = 0053;
},
{
glyphname = T;
lastChange = "2022-03-21 10:20:34 +0000";
layers = (
{
layerId = "9DF75A15-0AF9-4389-BE6D-DBD1DB18A6A2";
paths = (
{
closed = 1;
nodes = (
"323 0 LINE",
"323 544 LINE SMOOTH",
"323 579 OFFCURVE",
"321 640 OFFCURVE",
"321 640 CURVE",
"551 640 LINE",
"551 715 LINE",
"10 715 LINE",
"10 640 LINE",
"240 640 LINE",
"240 640 OFFCURVE",
"239 579 OFFCURVE",
"239 544 CURVE SMOOTH",
"239 0 LINE"
);
}
);
width = 561;
}
);
leftMetricsKey = V;
rightMetricsKey = V;
unicode = 0054;
},
{
glyphname = U;
lastChange = "2022-03-21 10:20:34 +0000";
layers = (
{
layerId = "9DF75A15-0AF9-4389-BE6D-DBD1DB18A6A2";
paths = (
{
closed = 1;
nodes = (
"513 -15 OFFCURVE",
"615 92 OFFCURVE",
"615 297 CURVE SMOOTH",
"615 715 LINE",
"530 715 LINE",
"530 276 LINE SMOOTH",
"530 128 OFFCURVE",
"462 56 OFFCURVE",
"344 56 CURVE SMOOTH",
"228 56 OFFCURVE",
"160 128 OFFCURVE",
"160 276 CURVE SMOOTH",
"160 715 LINE",
"75 715 LINE",
"75 297 LINE SMOOTH",
"75 92 OFFCURVE",
"179 -15 OFFCURVE",
"345 -15 CURVE SMOOTH"
);
}
);
width = 690;
}
);
leftMetricsKey = H;
rightMetricsKey = H;
unicode = 0055;
},
{
glyphname = V;
lastChange = "2022-03-21 10:20:34 +0000";
layers = (
{
layerId = "9DF75A15-0AF9-4389-BE6D-DBD1DB18A6A2";
paths = (
{
closed = 1;
nodes = (
"339 0 LINE",
"587 716 LINE",
"508 716 LINE",
"358 281 LINE SMOOTH",
"341 231 OFFCURVE",
"317 151 OFFCURVE",
"299 89 CURVE",
"281 151 OFFCURVE",
"256 231 OFFCURVE",
"239 281 CURVE SMOOTH",
"89 716 LINE",
"10 716 LINE",
"258 0 LINE"
);
}
);
width = 597;
}
);
unicode = 0056;
},
{
glyphname = W;
lastChange = "2022-03-21 10:20:34 +0000";
layers = (
{
guideLines = (
{
position = "{-98, 276}";
}
);
layerId = "9DF75A15-0AF9-4389-BE6D-DBD1DB18A6A2";
paths = (
{
closed = 1;
nodes = (
"728 1 LINE",
"942 716 LINE",
"864 716 LINE",
"733 277 LINE SMOOTH",
"720 232 OFFCURVE",
"703 166 OFFCURVE",
"690 109 CURVE",
"676 166 OFFCURVE",
"659 232 OFFCURVE",
"646 277 CURVE SMOOTH",
"515 716 LINE",
"437 716 LINE",
"306 275 LINE SMOOTH",
"293 231 OFFCURVE",
"276 165 OFFCURVE",
"263 109 CURVE",
"249 165 OFFCURVE",
"232 231 OFFCURVE",
"219 275 CURVE SMOOTH",
"88 716 LINE",
"10 716 LINE",
"224 1 LINE",
"301 1 LINE",
"476 586 LINE",
"651 1 LINE"
);
}
);
width = 952;
}
);
leftMetricsKey = V;
rightMetricsKey = V;
unicode = 0057;
},
{
glyphname = X;
lastChange = "2022-03-21 10:20:34 +0000";
layers = (
{
guideLines = (
{
position = "{-154, 535}";
},
{
position = "{-154, 176}";
},
{
angle = 90;
position = "{203, -409}";
},
{
angle = 90;
position = "{424, -409}";
}
);
layerId = "9DF75A15-0AF9-4389-BE6D-DBD1DB18A6A2";
paths = (
{
closed = 1;
nodes = (
"136 0 LINE",
"246 177 LINE SMOOTH",
"276 225 OFFCURVE",
"313 288 OFFCURVE",
"313 288 CURVE SMOOTH",
"313 288 OFFCURVE",
"350 225 OFFCURVE",
"381 176 CURVE SMOOTH",
"490 0 LINE",
"581 0 LINE",
"424 250 LINE SMOOTH",
"409 274 OFFCURVE",
"381 318 OFFCURVE",
"356 356 CURVE",
"424 463 LINE",
"581 715 LINE",
"494 715 LINE",
"381 536 LINE SMOOTH",
"351 488 OFFCURVE",
"313 423 OFFCURVE",
"313 423 CURVE SMOOTH",
"313 423 OFFCURVE",
"275 487 OFFCURVE",
"245 535 CURVE SMOOTH",
"132 715 LINE",
"45 715 LINE",
"203 461 LINE",
"270 356 LINE",
"246 319 OFFCURVE",
"218 276 OFFCURVE",
"203 252 CURVE SMOOTH",
"45 0 LINE"
);
}
);
width = 626;
}
);
leftMetricsKey = O;
rightMetricsKey = O;
unicode = 0058;
},
{
glyphname = Y;
lastChange = "2022-03-21 10:20:34 +0000";
layers = (
{
guideLines = (
{
position = "{-65, 455}";
}
);
layerId = "9DF75A15-0AF9-4389-BE6D-DBD1DB18A6A2";
paths = (
{
closed = 1;
nodes = (
"345 0 LINE",
"345 322 LINE",
"590 716 LINE",
"503 716 LINE",
"339 455 LINE SMOOTH",
"324 432 OFFCURVE",
"312 408 OFFCURVE",
"300 385 CURVE",
"288 408 OFFCURVE",
"277 431 OFFCURVE",
"262 454 CURVE SMOOTH",
"97 716 LINE",
"10 716 LINE",
"255 322 LINE",
"255 0 LINE"
);
}
);
width = 600;
}
);
leftMetricsKey = V;
rightMetricsKey = V;
unicode = 0059;
},
{
glyphname = Z;
lastChange = "2022-03-21 10:20:34 +0000";
layers = (
{
layerId = "9DF75A15-0AF9-4389-BE6D-DBD1DB18A6A2";
paths = (
{
closed = 1;
nodes = (
"585 0 LINE",
"585 75 LINE",
"163 75 LINE",
"585 679 LINE",
"585 715 LINE",
"45 715 LINE",
"45 640 LINE",
"467 640 LINE",
"45 37 LINE",
"45 0 LINE"
);
}
);
width = 630;
}
);
leftMetricsKey = O;
rightMetricsKey = O;
unicode = 005A;
},
{
glyphname = a;
lastChange = "2022-03-21 10:20:34 +0000";
layers = (
{
layerId = "9DF75A15-0AF9-4389-BE6D-DBD1DB18A6A2";
paths = (
{
closed = 1;
nodes = (
"290 -15 OFFCURVE",
"345 15 OFFCURVE",
"375 73 CURVE",
"375 3 OFFCURVE",
"419 -3 OFFCURVE",
"486 -3 CURVE SMOOTH",
"506 -3 OFFCURVE",
"520 -1 OFFCURVE",
"520 -1 CURVE",
"520 66 LINE",
"520 66 OFFCURVE",
"509 65 OFFCURVE",
"494 67 CURVE SMOOTH",
"467 71 OFFCURVE",
"450 72 OFFCURVE",
"450 131 CURVE",
"450 133 OFFCURVE",
"451 304 OFFCURVE",
"450 389 CURVE SMOOTH",
"449 474 OFFCURVE",
"378 530 OFFCURVE",
"249 530 CURVE SMOOTH",
"139 530 OFFCURVE",
"63 472 OFFCURVE",
"51 367 CURVE",
"133 367 LINE",
"141 440 OFFCURVE",
"191 469 OFFCURVE",
"260 469 CURVE SMOOTH",
"326 469 OFFCURVE",
"373 434 OFFCURVE",
"373 391 CURVE SMOOTH",
"373 338 OFFCURVE",
"319 324 OFFCURVE",
"226 301 CURVE SMOOTH",
"117 277 OFFCURVE",
"35 254 OFFCURVE",
"35 144 CURVE SMOOTH",
"35 51 OFFCURVE",
"122 -15 OFFCURVE",
"214 -15 CURVE SMOOTH"
);
},
{
closed = 1;
nodes = (
"166 49 OFFCURVE",
"118 85 OFFCURVE",
"118 139 CURVE SMOOTH",
"118 181 OFFCURVE",
"141 214 OFFCURVE",
"253 238 CURVE SMOOTH",
"298 248 OFFCURVE",
"341 258 OFFCURVE",
"375 274 CURVE",
"375 226 LINE SMOOTH",
"375 120 OFFCURVE",
"308 49 OFFCURVE",
"236 49 CURVE SMOOTH"
);
}
);
width = 593;
}
);
leftMetricsKey = o;
rightMetricsKey = n;
unicode = 0061;
},
{
glyphname = b;
lastChange = "2022-03-21 10:20:34 +0000";
layers = (
{
layerId = "9DF75A15-0AF9-4389-BE6D-DBD1DB18A6A2";
paths = (
{
closed = 1;
nodes = (
"435 -15 OFFCURVE",
"533 87 OFFCURVE",
"533 258 CURVE SMOOTH",
"533 428 OFFCURVE",
"436 530 OFFCURVE",
"325 530 CURVE SMOOTH",
"236 530 OFFCURVE",
"170 481 OFFCURVE",
"148 435 CURVE",
"148 717 LINE",
"73 717 LINE",
"73 0 LINE",
"148 0 LINE",
"148 80 LINE",
"170 34 OFFCURVE",
"236 -15 OFFCURVE",
"325 -15 CURVE SMOOTH"
);
},
{
closed = 1;
nodes = (
"148 371 OFFCURVE",
"201 461 OFFCURVE",
"300 461 CURVE SMOOTH",
"378 461 OFFCURVE",
"451 391 OFFCURVE",
"451 257 CURVE SMOOTH",
"451 125 OFFCURVE",
"379 55 OFFCURVE",
"300 55 CURVE SMOOTH",
"201 55 OFFCURVE",
"148 145 OFFCURVE",
"148 257 CURVE SMOOTH"
);
}
);
width = 568;
}
);
leftMetricsKey = n;
rightMetricsKey = o;
unicode = 0062;
},
{
glyphname = c;
lastChange = "2022-03-21 10:20:34 +0000";
layers = (
{
layerId = "9DF75A15-0AF9-4389-BE6D-DBD1DB18A6A2";
paths = (
{
closed = 1;
nodes = (
"410 -14 OFFCURVE",
"488 65 OFFCURVE",
"508 174 CURVE",
"424 174 LINE",
"409 110 OFFCURVE",
"364 55 OFFCURVE",
"290 55 CURVE SMOOTH",
"174 55 OFFCURVE",
"114 144 OFFCURVE",
"114 257 CURVE SMOOTH",
"114 371 OFFCURVE",
"174 460 OFFCURVE",
"290 460 CURVE SMOOTH",
"363 460 OFFCURVE",
"408 406 OFFCURVE",
"423 342 CURVE",
"509 342 LINE",
"489 451 OFFCURVE",
"411 530 OFFCURVE",
"285 530 CURVE SMOOTH",
"131 530 OFFCURVE",
"35 408 OFFCURVE",
"35 258 CURVE SMOOTH",
"35 108 OFFCURVE",
"131 -14 OFFCURVE",
"285 -14 CURVE SMOOTH"
);
}
);
width = 544;
}
);
leftMetricsKey = o;
rightMetricsKey = o;
unicode = 0063;
},
{
glyphname = d;
lastChange = "2022-03-21 10:20:34 +0000";
layers = (
{
layerId = "9DF75A15-0AF9-4389-BE6D-DBD1DB18A6A2";
paths = (
{
closed = 1;
nodes = (
"332 -15 OFFCURVE",
"398 34 OFFCURVE",
"420 80 CURVE",
"420 0 LINE",
"495 0 LINE",
"495 717 LINE",
"420 717 LINE",
"420 435 LINE",
"398 481 OFFCURVE",
"332 530 OFFCURVE",
"243 530 CURVE SMOOTH",
"132 530 OFFCURVE",
"35 428 OFFCURVE",
"35 258 CURVE SMOOTH",
"35 87 OFFCURVE",
"133 -15 OFFCURVE",
"243 -15 CURVE SMOOTH"
);
},
{
closed = 1;
nodes = (
"117 391 OFFCURVE",
"190 461 OFFCURVE",
"268 461 CURVE SMOOTH",
"367 461 OFFCURVE",
"420 371 OFFCURVE",
"420 257 CURVE SMOOTH",
"420 145 OFFCURVE",
"367 55 OFFCURVE",
"268 55 CURVE SMOOTH",
"189 55 OFFCURVE",
"117 125 OFFCURVE",
"117 257 CURVE SMOOTH"
);
}
);
width = 568;
}
);
leftMetricsKey = o;
rightMetricsKey = n;
unicode = 0064;
},
{
glyphname = e;
lastChange = "2022-03-21 10:20:34 +0000";
layers = (
{
guideLines = (
{
position = "{0, 160}";
}
);
layerId = "9DF75A15-0AF9-4389-BE6D-DBD1DB18A6A2";
paths = (
{
closed = 1;
nodes = (
"407 -14 OFFCURVE",
"480 62 OFFCURVE",
"506 167 CURVE",
"424 166 LINE",
"405 105 OFFCURVE",
"366 49 OFFCURVE",
"285 49 CURVE SMOOTH",
"175 49 OFFCURVE",
"121 140 OFFCURVE",
"116 242 CURVE",
"136 241 OFFCURVE",
"182 240 OFFCURVE",
"223 240 CURVE SMOOTH",
"516 240 LINE",
"516 258 LINE SMOOTH",
"516 408 OFFCURVE",
"442 530 OFFCURVE",
"285 530 CURVE SMOOTH",
"131 530 OFFCURVE",
"35 408 OFFCURVE",
"35 258 CURVE SMOOTH",
"35 108 OFFCURVE",
"131 -14 OFFCURVE",
"285 -14 CURVE SMOOTH"
);
},
{
closed = 1;
nodes = (
"134 394 OFFCURVE",
"187 465 OFFCURVE",
"285 465 CURVE SMOOTH",
"382 465 OFFCURVE",
"423 395 OFFCURVE",
"433 307 CURVE",
"223 307 LINE SMOOTH",
"184 307 OFFCURVE",
"141 306 OFFCURVE",
"120 305 CURVE"
);
}
);
width = 551;
}
);
leftMetricsKey = o;
rightMetricsKey = o;
unicode = 0065;
},
{
glyphname = f;
lastChange = "2022-03-21 10:20:34 +0000";
layers = (
{
layerId = "9DF75A15-0AF9-4389-BE6D-DBD1DB18A6A2";
paths = (
{
closed = 1;
nodes = (
"198 0 LINE",
"198 362 LINE SMOOTH",
"198 391 OFFCURVE",
"197 451 OFFCURVE",
"197 451 CURVE SMOOTH",
"197 451 OFFCURVE",
"225 450 OFFCURVE",
"240 450 CURVE SMOOTH",
"299 450 LINE",
"299 517 LINE",
"240 517 LINE SMOOTH",
"225 517 OFFCURVE",
"197 516 OFFCURVE",
"197 516 CURVE",
"198 579 LINE SMOOTH",
"198 659 OFFCURVE",
"260 645 OFFCURVE",
"297 649 CURVE",
"297 716 LINE",
"297 716 OFFCURVE",
"266 719 OFFCURVE",
"232 716 CURVE SMOOTH",
"153 710 OFFCURVE",
"117 655 OFFCURVE",
"117 592 CURVE SMOOTH",
"117 567 OFFCURVE",
"118 516 OFFCURVE",
"118 516 CURVE SMOOTH",
"118 516 OFFCURVE",
"88 517 OFFCURVE",
"73 517 CURVE SMOOTH",
"35 517 LINE",
"35 450 LINE",
"73 450 LINE SMOOTH",
"88 450 OFFCURVE",
"118 451 OFFCURVE",
"118 451 CURVE SMOOTH",
"118 451 OFFCURVE",
"117 392 OFFCURVE",
"117 362 CURVE SMOOTH",
"117 0 LINE"
);
}
);
width = 334;
}
);
unicode = 0066;
},
{
glyphname = g;
lastChange = "2022-03-21 10:20:34 +0000";
layers = (
{
layerId = "9DF75A15-0AF9-4389-BE6D-DBD1DB18A6A2";
paths = (
{
closed = 1;
nodes = (
"425 -182 OFFCURVE",
"495 -86 OFFCURVE",
"495 30 CURVE SMOOTH",
"495 517 LINE",
"420 517 LINE",
"420 441 LINE",
"398 483 OFFCURVE",
"332 530 OFFCURVE",
"243 530 CURVE SMOOTH",
"133 530 OFFCURVE",
"35 434 OFFCURVE",
"35 274 CURVE SMOOTH",
"35 115 OFFCURVE",
"132 18 OFFCURVE",
"243 18 CURVE SMOOTH",
"332 18 OFFCURVE",
"398 64 OFFCURVE",
"420 108 CURVE",
"420 38 LINE SMOOTH",
"420 -45 OFFCURVE",
"380 -114 OFFCURVE",
"280 -114 CURVE SMOOTH",
"186 -114 OFFCURVE",
"152 -86 OFFCURVE",
"133 -32 CURVE",
"56 -31 LINE",
"77 -126 OFFCURVE",
"157 -182 OFFCURVE",
"280 -182 CURVE SMOOTH"
);
},
{
closed = 1;
nodes = (
"117 398 OFFCURVE",
"189 465 OFFCURVE",
"268 465 CURVE SMOOTH",
"367 465 OFFCURVE",
"420 380 OFFCURVE",
"420 275 CURVE SMOOTH",
"420 167 OFFCURVE",
"367 83 OFFCURVE",
"268 83 CURVE SMOOTH",
"190 83 OFFCURVE",
"117 149 OFFCURVE",
"117 275 CURVE SMOOTH"
);
}
);
width = 568;
}
);
leftMetricsKey = o;
rightMetricsKey = n;
unicode = 0067;
},
{
glyphname = h;
lastChange = "2022-03-21 10:20:34 +0000";
layers = (
{
layerId = "9DF75A15-0AF9-4389-BE6D-DBD1DB18A6A2";
paths = (
{
closed = 1;
nodes = (
"154 389 OFFCURVE",
"212 461 OFFCURVE",
"305 461 CURVE SMOOTH",
"375 461 OFFCURVE",
"413 425 OFFCURVE",
"413 338 CURVE SMOOTH",
"413 0 LINE",
"494 0 LINE",
"494 374 LINE SMOOTH",
"494 471 OFFCURVE",
"423 531 OFFCURVE",
"330 531 CURVE SMOOTH",
"242 531 OFFCURVE",
"175 479 OFFCURVE",
"154 445 CURVE",
"154 716 LINE",
"73 716 LINE",
"73 0 LINE",
"154 0 LINE",
"154 333 LINE SMOOTH"
);
}
);
width = 567;
}
);
leftMetricsKey = n;
rightMetricsKey = n;
unicode = 0068;
},
{
glyphname = i;
lastChange = "2022-03-21 10:20:34 +0000";
layers = (
{
hints = (
{
place = "{55, 81}";
type = Stem;
}
);
layerId = "9DF75A15-0AF9-4389-BE6D-DBD1DB18A6A2";
paths = (
{
closed = 1;
nodes = (
"163 0 LINE",
"163 517 LINE",
"82 517 LINE",
"82 0 LINE"
);
},
{
closed = 1;
nodes = (
"73 642 OFFCURVE",
"94 621 OFFCURVE",
"122 621 CURVE SMOOTH",
"150 621 OFFCURVE",
"171 642 OFFCURVE",
"171 669 CURVE SMOOTH",
"171 696 OFFCURVE",
"150 717 OFFCURVE",
"122 717 CURVE SMOOTH",
"94 717 OFFCURVE",
"73 696 OFFCURVE",
"73 669 CURVE SMOOTH"
);
}
);
width = 244;
}
);
leftMetricsKey = n;
rightMetricsKey = n;
unicode = 0069;
},
{
glyphname = j;
lastChange = "2022-03-21 10:20:34 +0000";
layers = (
{
hints = (
{
horizontal = 1;
place = "{-96, 67}";
type = Stem;
}
);
layerId = "9DF75A15-0AF9-4389-BE6D-DBD1DB18A6A2";
paths = (
{
closed = 1;
nodes = (
"216 517 LINE",
"135 517 LINE",
"135 35 LINE SMOOTH",
"135 -24 OFFCURVE",
"118 -25 OFFCURVE",
"91 -29 CURVE SMOOTH",
"76 -31 OFFCURVE",
"35 -29 OFFCURVE",
"35 -29 CURVE",
"35 -96 LINE",
"35 -96 OFFCURVE",
"56 -99 OFFCURVE",
"99 -99 CURVE SMOOTH",
"167 -99 OFFCURVE",
"215 -73 OFFCURVE",
"216 0 CURVE SMOOTH"
);
},
{
closed = 1;
nodes = (
"126 642 OFFCURVE",
"147 621 OFFCURVE",
"175 621 CURVE SMOOTH",
"203 621 OFFCURVE",
"224 642 OFFCURVE",
"224 669 CURVE SMOOTH",
"224 696 OFFCURVE",
"203 717 OFFCURVE",
"175 717 CURVE SMOOTH",
"147 717 OFFCURVE",
"126 696 OFFCURVE",
"126 669 CURVE SMOOTH"
);
}
);
width = 297;
}
);
leftMetricsKey = f;
rightMetricsKey = n;
unicode = 006A;
},
{
glyphname = k;
lastChange = "2022-03-21 10:20:34 +0000";
layers = (
{
guideLines = (
{
angle = 90;
position = "{-71, 259}";
},
{
angle = 90;
position = "{448, 821}";
}
);
layerId = "9DF75A15-0AF9-4389-BE6D-DBD1DB18A6A2";
paths = (
{
closed = 1;
nodes = (
"155 197 OFFCURVE",
"189 232 OFFCURVE",
"206 251 CURVE",
"248 192 LINE",
"388 0 LINE",
"480 0 LINE",
"256 305 LINE",
"448 516 LINE",
"359 516 LINE",
"217 362 LINE SMOOTH",
"196 340 OFFCURVE",
"155 293 OFFCURVE",
"155 293 CURVE",
"155 717 LINE",
"74 717 LINE",
"73 0 LINE",
"155 1 LINE",
"155 197 LINE"
);
}
);
width = 490;
}
);
leftMetricsKey = n;
unicode = 006B;
},
{
glyphname = l;
lastChange = "2022-03-21 10:20:34 +0000";
layers = (
{
layerId = "9DF75A15-0AF9-4389-BE6D-DBD1DB18A6A2";
paths = (
{
closed = 1;
nodes = (
"154 0 LINE",
"154 716 LINE",
"73 716 LINE",
"73 0 LINE"
);
}
);
width = 227;
}
);
leftMetricsKey = n;
rightMetricsKey = n;
unicode = 006C;
},
{
glyphname = m;
lastChange = "2022-03-21 10:20:34 +0000";
layers = (
{
anchors = (
{
name = bottom;
position = "{318, 0}";
}
);
layerId = "9DF75A15-0AF9-4389-BE6D-DBD1DB18A6A2";
paths = (
{
closed = 1;
nodes = (
"463 389 OFFCURVE",
"503 461 OFFCURVE",
"596 461 CURVE SMOOTH",
"657 461 OFFCURVE",
"691 425 OFFCURVE",
"691 338 CURVE SMOOTH",
"692 225 OFFCURVE",
"691 113 OFFCURVE",
"691 0 CURVE",
"772 0 LINE",
"772 374 LINE SMOOTH",
"772 471 OFFCURVE",
"705 531 OFFCURVE",
"621 531 CURVE SMOOTH",
"540 531 OFFCURVE",
"477 489 OFFCURVE",
"448 448 CURVE",
"423 500 OFFCURVE",
"372 531 OFFCURVE",
"312 531 CURVE SMOOTH",
"224 531 OFFCURVE",
"175 479 OFFCURVE",
"154 445 CURVE",
"154 517 LINE",
"73 517 LINE",
"73 0 LINE",
"154 0 LINE",
"154 333 LINE SMOOTH",
"154 389 OFFCURVE",
"194 461 OFFCURVE",
"287 461 CURVE SMOOTH",
"348 461 OFFCURVE",
"382 425 OFFCURVE",
"382 338 CURVE SMOOTH",
"382 0 LINE",
"463 0 LINE",
"463 333 LINE SMOOTH"
);
}
);
width = 845;
}
);
leftMetricsKey = n;
rightMetricsKey = n;
unicode = 006D;
},
{
glyphname = n;
lastChange = "2022-03-21 10:20:34 +0000";
layers = (
{
hints = (
{
place = "{55, 81}";
type = Stem;
},
{
place = "{395, 81}";
type = Stem;
},
{
horizontal = 1;
place = "{461, 68}";
type = Stem;
}
);
layerId = "9DF75A15-0AF9-4389-BE6D-DBD1DB18A6A2";
paths = (
{
closed = 1;
nodes = (
"154 389 OFFCURVE",
"212 461 OFFCURVE",
"305 461 CURVE SMOOTH",
"375 461 OFFCURVE",
"413 425 OFFCURVE",
"413 338 CURVE SMOOTH",
"413 0 LINE",
"494 0 LINE",
"494 374 LINE SMOOTH",
"494 471 OFFCURVE",
"423 531 OFFCURVE",
"330 531 CURVE SMOOTH",
"242 531 OFFCURVE",
"175 479 OFFCURVE",
"154 445 CURVE",
"154 517 LINE",
"73 517 LINE",
"73 0 LINE",
"154 0 LINE",
"154 333 LINE SMOOTH"
);
}
);
width = 567;
}
);
unicode = 006E;
},
{
glyphname = o;
lastChange = "2022-03-21 10:20:34 +0000";
layers = (
{
hints = (
{
place = "{22, 83}";
type = Stem;
},
{
place = "{438, 83}";
type = Stem;
},
{
horizontal = 1;
place = "{530, -81}";
type = Stem;
},
{
horizontal = 1;
place = "{-14, 81}";
type = Stem;
}
);
layerId = "9DF75A15-0AF9-4389-BE6D-DBD1DB18A6A2";
paths = (
{
closed = 1;
nodes = (
"440 -14 OFFCURVE",
"534 108 OFFCURVE",
"534 258 CURVE SMOOTH",
"534 408 OFFCURVE",
"442 530 OFFCURVE",
"285 530 CURVE SMOOTH",
"131 530 OFFCURVE",
"35 408 OFFCURVE",
"35 258 CURVE SMOOTH",
"35 108 OFFCURVE",
"131 -14 OFFCURVE",
"285 -14 CURVE SMOOTH"
);
},
{
closed = 1;
nodes = (
"115 366 OFFCURVE",
"176 459 OFFCURVE",
"285 459 CURVE SMOOTH",
"397 459 OFFCURVE",
"455 366 OFFCURVE",
"455 257 CURVE SMOOTH",
"455 149 OFFCURVE",
"394 56 OFFCURVE",
"285 56 CURVE SMOOTH",
"177 56 OFFCURVE",
"115 149 OFFCURVE",
"115 257 CURVE SMOOTH"
);
}
);
width = 569;
}
);
unicode = 006F;
},
{
glyphname = p;
lastChange = "2022-03-21 10:20:34 +0000";
layers = (
{
layerId = "9DF75A15-0AF9-4389-BE6D-DBD1DB18A6A2";
paths = (
{
closed = 1;
nodes = (
"148 -166 LINE",
"148 80 LINE",
"170 34 OFFCURVE",
"236 -15 OFFCURVE",
"325 -15 CURVE SMOOTH",
"436 -15 OFFCURVE",
"533 87 OFFCURVE",
"533 257 CURVE SMOOTH",
"533 428 OFFCURVE",
"435 530 OFFCURVE",
"325 530 CURVE SMOOTH",
"236 530 OFFCURVE",
"170 481 OFFCURVE",
"148 435 CURVE",
"148 517 LINE",
"73 517 LINE",
"73 -166 LINE"
);
},
{
closed = 1;
nodes = (
"148 370 OFFCURVE",
"201 460 OFFCURVE",
"300 460 CURVE SMOOTH",
"379 460 OFFCURVE",
"451 390 OFFCURVE",
"451 258 CURVE SMOOTH",
"451 124 OFFCURVE",
"378 54 OFFCURVE",
"300 54 CURVE SMOOTH",
"201 54 OFFCURVE",
"148 144 OFFCURVE",
"148 258 CURVE SMOOTH"
);
}
);
width = 568;
}
);
leftMetricsKey = n;
rightMetricsKey = o;
unicode = 0070;
},
{
glyphname = q;
lastChange = "2022-03-21 10:20:34 +0000";
layers = (
{
layerId = "9DF75A15-0AF9-4389-BE6D-DBD1DB18A6A2";
paths = (
{
closed = 1;
nodes = (
"495 -166 LINE",
"495 517 LINE",
"420 517 LINE",
"420 435 LINE",
"398 481 OFFCURVE",
"332 530 OFFCURVE",
"243 530 CURVE SMOOTH",
"133 530 OFFCURVE",
"35 428 OFFCURVE",
"35 257 CURVE SMOOTH",
"35 87 OFFCURVE",
"132 -15 OFFCURVE",
"243 -15 CURVE SMOOTH",
"332 -15 OFFCURVE",
"398 34 OFFCURVE",
"420 80 CURVE",
"420 -166 LINE"
);
},
{
closed = 1;
nodes = (
"117 390 OFFCURVE",
"189 460 OFFCURVE",
"268 460 CURVE SMOOTH",
"367 460 OFFCURVE",
"420 370 OFFCURVE",
"420 258 CURVE SMOOTH",
"420 144 OFFCURVE",
"367 54 OFFCURVE",
"268 54 CURVE SMOOTH",
"190 54 OFFCURVE",
"117 124 OFFCURVE",
"117 258 CURVE SMOOTH"
);
}
);
width = 568;
}
);
leftMetricsKey = o;
rightMetricsKey = n;
unicode = 0071;
},
{
glyphname = r;
lastChange = "2022-03-21 10:20:34 +0000";
layers = (
{
layerId = "9DF75A15-0AF9-4389-BE6D-DBD1DB18A6A2";
paths = (
{
closed = 1;
nodes = (
"154 0 LINE",
"154 323 LINE SMOOTH",
"154 405 OFFCURVE",
"219 468 OFFCURVE",
"299 458 CURVE",
"299 525 LINE",
"232 531 OFFCURVE",
"183 495 OFFCURVE",
"154 444 CURVE",
"154 517 LINE",
"73 517 LINE",
"73 0 LINE"
);
}
);
width = 329;
}
);
leftMetricsKey = n;
unicode = 0072;
},
{
glyphname = s;
lastChange = "2022-03-21 10:20:34 +0000";
layers = (
{
layerId = "9DF75A15-0AF9-4389-BE6D-DBD1DB18A6A2";
paths = (
{
closed = 1;
nodes = (
"397 -16 OFFCURVE",
"465 51 OFFCURVE",
"465 144 CURVE SMOOTH",
"465 254 OFFCURVE",
"383 276 OFFCURVE",
"274 301 CURVE SMOOTH",
"182 325 OFFCURVE",
"127 338 OFFCURVE",
"127 391 CURVE SMOOTH",
"127 434 OFFCURVE",
"174 469 OFFCURVE",
"240 469 CURVE SMOOTH",
"309 469 OFFCURVE",
"359 440 OFFCURVE",
"367 367 CURVE",
"449 367 LINE",
"437 465 OFFCURVE",
"361 530 OFFCURVE",
"251 530 CURVE SMOOTH",
"121 530 OFFCURVE",
"50 473 OFFCURVE",
"50 387 CURVE SMOOTH",
"50 281 OFFCURVE",
"143 258 OFFCURVE",
"247 236 CURVE SMOOTH",
"359 212 OFFCURVE",
"382 181 OFFCURVE",
"382 139 CURVE SMOOTH",
"382 85 OFFCURVE",
"332 49 OFFCURVE",
"253 49 CURVE SMOOTH",
"175 49 OFFCURVE",
"129 79 OFFCURVE",
"117 156 CURVE",
"35 156 LINE",
"48 53 OFFCURVE",
"124 -16 OFFCURVE",
"251 -16 CURVE SMOOTH"
);
}
);
width = 500;
}
);
leftMetricsKey = o;
rightMetricsKey = o;
unicode = 0073;
},
{
glyphname = germandbls;
lastChange = "2022-03-21 10:20:34 +0000";
layers = (
{
layerId = "9DF75A15-0AF9-4389-BE6D-DBD1DB18A6A2";
paths = (
{
closed = 1;
nodes = (
"161 0 LINE",
"161 528 LINE SMOOTH",
"161 596 OFFCURVE",
"211 655 OFFCURVE",
"280 655 CURVE SMOOTH",
"361 655 OFFCURVE",
"409 603 OFFCURVE",
"409 537 CURVE SMOOTH",
"409 471 OFFCURVE",
"359 419 OFFCURVE",
"286 419 CURVE SMOOTH",
"260 419 LINE",
"260 341 LINE",
"303 341 LINE SMOOTH",
"385 341 OFFCURVE",
"445 277 OFFCURVE",
"445 201 CURVE SMOOTH",
"445 124 OFFCURVE",
"397 62 OFFCURVE",
"312 62 CURVE SMOOTH",
"265 62 OFFCURVE",
"253 68 OFFCURVE",
"253 68 CURVE",
"253 -9 LINE",
"253 -9 OFFCURVE",
"273 -15 OFFCURVE",
"326 -15 CURVE SMOOTH",
"457 -15 OFFCURVE",
"531 82 OFFCURVE",
"531 201 CURVE SMOOTH",
"531 294 OFFCURVE",
"476 359 OFFCURVE",
"389 383 CURVE",
"456 408 OFFCURVE",
"495 463 OFFCURVE",
"495 537 CURVE SMOOTH",
"495 644 OFFCURVE",
"408 731 OFFCURVE",
"280 731 CURVE SMOOTH",
"151 731 OFFCURVE",
"75 637 OFFCURVE",
"75 533 CURVE SMOOTH",
"76 0 LINE"
);
}
);
width = 566;
}
);
leftMetricsKey = H;
rightMetricsKey = o;
unicode = 00DF;
},
{
glyphname = t;
lastChange = "2022-03-21 10:20:34 +0000";
layers = (
{
layerId = "9DF75A15-0AF9-4389-BE6D-DBD1DB18A6A2";
paths = (
{
closed = 1;
nodes = (
"120 21 OFFCURVE",
"167 -3 OFFCURVE",
"234 -3 CURVE SMOOTH",
"277 -3 OFFCURVE",
"298 0 OFFCURVE",
"298 0 CURVE",
"298 67 LINE",
"298 67 OFFCURVE",
"257 65 OFFCURVE",
"242 67 CURVE SMOOTH",
"215 71 OFFCURVE",
"198 72 OFFCURVE",
"198 131 CURVE SMOOTH",
"198 362 LINE SMOOTH",
"198 391 OFFCURVE",
"197 451 OFFCURVE",
"197 451 CURVE SMOOTH",
"197 451 OFFCURVE",
"225 450 OFFCURVE",
"240 450 CURVE SMOOTH",
"299 450 LINE",
"299 517 LINE",
"240 517 LINE SMOOTH",
"225 517 OFFCURVE",
"197 516 OFFCURVE",
"197 516 CURVE",
"198 632 LINE",
"198 656 LINE",
"117 656 LINE",
"117 632 LINE",
"118 516 LINE",
"118 516 OFFCURVE",
"88 517 OFFCURVE",
"73 517 CURVE SMOOTH",
"35 517 LINE",
"35 450 LINE",
"73 450 LINE SMOOTH",
"88 450 OFFCURVE",
"118 451 OFFCURVE",
"118 451 CURVE SMOOTH",
"118 451 OFFCURVE",
"117 392 OFFCURVE",
"117 362 CURVE SMOOTH",
"117 91 LINE"
);
}
);
width = 334;
}
);
leftMetricsKey = f;
rightMetricsKey = f;
unicode = 0074;
},
{
glyphname = u;
lastChange = "2022-03-21 10:20:34 +0000";
layers = (
{
layerId = "9DF75A15-0AF9-4389-BE6D-DBD1DB18A6A2";
paths = (
{
closed = 1;
nodes = (
"333 -14 OFFCURVE",
"383 35 OFFCURVE",
"404 69 CURVE",
"404 0 LINE",
"485 0 LINE",
"485 517 LINE",
"404 517 LINE",
"404 175 LINE SMOOTH",
"404 119 OFFCURVE",
"343 56 OFFCURVE",
"275 56 CURVE SMOOTH",
"194 56 OFFCURVE",
"154 91 OFFCURVE",
"154 189 CURVE SMOOTH",
"154 517 LINE",
"73 517 LINE",
"73 164 LINE SMOOTH",
"73 46 OFFCURVE",
"147 -14 OFFCURVE",
"250 -14 CURVE SMOOTH"
);
}
);
width = 558;
}
);
leftMetricsKey = n;
rightMetricsKey = n;
unicode = 0075;
},
{
glyphname = v;
lastChange = "2022-03-21 10:20:34 +0000";
layers = (
{
guideLines = (
{
position = "{117, 210}";
}
);
hints = (
{
horizontal = 1;
place = "{2, 81}";
type = Stem;
}
);
layerId = "9DF75A15-0AF9-4389-BE6D-DBD1DB18A6A2";
paths = (
{
closed = 1;
nodes = (
"289 2 LINE",
"470 517 LINE",
"385 517 LINE SMOOTH",
"385 517 OFFCURVE",
"312 312 OFFCURVE",
"283 209 CURVE SMOOTH",
"246 81 LINE",
"208 211 LINE SMOOTH",
"177 315 OFFCURVE",
"108 517 OFFCURVE",
"108 517 CURVE SMOOTH",
"23 517 LINE",
"203 2 LINE"
);
}
);
width = 493;
}
);
unicode = 0076;
},
{
glyphname = w;
lastChange = "2022-03-21 10:20:34 +0000";
layers = (
{
hints = (
{
horizontal = 1;
place = "{0, 81}";
type = Stem;
},
{
horizontal = 1;
place = "{517, -81}";
type = Stem;
}
);
layerId = "9DF75A15-0AF9-4389-BE6D-DBD1DB18A6A2";
paths = (
{
closed = 1;
nodes = (
"279 0 LINE",
"407 436 LINE",
"534 0 LINE",
"620 0 LINE",
"791 517 LINE",
"706 517 LINE SMOOTH",
"706 517 OFFCURVE",
"640 311 OFFCURVE",
"612 208 CURVE SMOOTH",
"601 165 OFFCURVE",
"578 80 OFFCURVE",
"578 80 CURVE SMOOTH",
"578 80 OFFCURVE",
"552 163 OFFCURVE",
"541 206 CURVE SMOOTH",
"513 313 OFFCURVE",
"449 517 OFFCURVE",
"449 517 CURVE SMOOTH",
"364 517 LINE SMOOTH",
"364 517 OFFCURVE",
"298 312 OFFCURVE",
"271 208 CURVE SMOOTH",
"260 165 OFFCURVE",
"236 80 OFFCURVE",
"236 80 CURVE SMOOTH",
"236 80 OFFCURVE",
"213 166 OFFCURVE",
"200 210 CURVE SMOOTH",
"171 314 OFFCURVE",
"108 517 OFFCURVE",
"108 517 CURVE SMOOTH",
"23 517 LINE",
"193 0 LINE"
);
}
);
width = 814;
}
);
leftMetricsKey = v;
rightMetricsKey = v;
unicode = 0077;
},
{
glyphname = x;
lastChange = "2022-03-21 10:20:34 +0000";
layers = (
{
layerId = "9DF75A15-0AF9-4389-BE6D-DBD1DB18A6A2";
paths = (
{
closed = 1;
nodes = (
"125 0 LINE",
"216 130 LINE SMOOTH",
"231 151 OFFCURVE",
"246 174 OFFCURVE",
"261 195 CURVE",
"306 129 LINE",
"397 0 LINE",
"487 0 LINE",
"349 198 LINE SMOOTH",
"335 218 OFFCURVE",
"318 239 OFFCURVE",
"304 259 CURVE",
"318 279 OFFCURVE",
"335 300 OFFCURVE",
"349 320 CURVE SMOOTH",
"487 517 LINE",
"397 517 LINE",
"305 385 LINE SMOOTH",
"290 364 OFFCURVE",
"276 342 OFFCURVE",
"261 321 CURVE",
"246 342 OFFCURVE",
"232 364 OFFCURVE",
"217 385 CURVE SMOOTH",
"125 517 LINE",
"35 517 LINE",
"177 315 LINE SMOOTH",
"190 296 OFFCURVE",
"205 278 OFFCURVE",
"218 259 CURVE",
"178 204 LINE",
"35 0 LINE"
);
}
);
width = 522;
}
);
leftMetricsKey = o;
rightMetricsKey = o;
unicode = 0078;
},
{
glyphname = y;
lastChange = "2022-03-21 10:20:34 +0000";
layers = (
{
layerId = "9DF75A15-0AF9-4389-BE6D-DBD1DB18A6A2";
paths = (
{
closed = 1;
nodes = (
"215 -181 OFFCURVE",
"254 -132 OFFCURVE",
"281 -67 CURVE",
"487 517 LINE",
"397 517 LINE",
"298 209 LINE",
"261 81 LINE",
"223 211 LINE",
"125 517 LINE",
"35 517 LINE",
"216 0 LINE",
"194 -59 LINE SMOOTH",
"178 -102 OFFCURVE",
"165 -107 OFFCURVE",
"138 -111 CURVE SMOOTH",
"123 -113 OFFCURVE",
"82 -111 OFFCURVE",
"82 -111 CURVE",
"82 -178 LINE",
"82 -178 OFFCURVE",
"103 -181 OFFCURVE",
"146 -181 CURVE SMOOTH"
);
}
);
width = 522;
}
);
leftMetricsKey = o;
rightMetricsKey = o;
unicode = 0079;
},
{
glyphname = z;
lastChange = "2022-03-21 10:20:34 +0000";
layers = (
{
layerId = "9DF75A15-0AF9-4389-BE6D-DBD1DB18A6A2";
paths = (
{
closed = 1;
nodes = (
"441 71 LINE",
"128 71 LINE SMOOTH",
"128 71 OFFCURVE",
"177 126 OFFCURVE",
"199 154 CURVE SMOOTH",
"436 448 LINE",
"436 517 LINE",
"60 517 LINE",
"60 446 LINE",
"343 446 LINE",
"343 446 OFFCURVE",
"302 401 OFFCURVE",
"284 378 CURVE SMOOTH",
"35 69 LINE",
"35 1 LINE",
"441 0 LINE"
);
}
);
width = 476;
}
);
leftMetricsKey = o;
rightMetricsKey = o;
unicode = 007A;
},
{
glyphname = zero;
lastChange = "2022-03-21 10:20:34 +0000";
layers = (
{
layerId = "9DF75A15-0AF9-4389-BE6D-DBD1DB18A6A2";
paths = (
{
closed = 1;
nodes = (
"498 -15 OFFCURVE",
"598 102 OFFCURVE",
"598 357 CURVE SMOOTH",
"598 613 OFFCURVE",
"498 730 OFFCURVE",
"337 730 CURVE SMOOTH",
"178 730 OFFCURVE",
"75 613 OFFCURVE",
"75 357 CURVE SMOOTH",
"75 102 OFFCURVE",
"178 -15 OFFCURVE",
"337 -15 CURVE SMOOTH"
);
},
{
closed = 1;
nodes = (
"162 567 OFFCURVE",
"229 656 OFFCURVE",
"338 656 CURVE SMOOTH",
"447 656 OFFCURVE",
"512 567 OFFCURVE",
"512 356 CURVE SMOOTH",
"512 147 OFFCURVE",
"447 58 OFFCURVE",
"338 58 CURVE SMOOTH",
"229 58 OFFCURVE",
"162 147 OFFCURVE",
"162 356 CURVE SMOOTH"
);
}
);
width = 673;
}
);
unicode = 0030;
},
{
glyphname = one;
lastChange = "2022-03-21 10:20:34 +0000";
layers = (
{
layerId = "9DF75A15-0AF9-4389-BE6D-DBD1DB18A6A2";
paths = (
{
closed = 1;
nodes = (
"268 0 LINE",
"268 715 LINE",
"184 715 LINE",
"184 634 OFFCURVE",
"91 589 OFFCURVE",
"36 589 CURVE",
"36 531 LINE",
"184 531 LINE",
"184 0 LINE"
);
}
);
width = 393;
}
);
unicode = 0031;
},
{
glyphname = two;
lastChange = "2022-03-21 10:20:34 +0000";
layers = (
{
layerId = "9DF75A15-0AF9-4389-BE6D-DBD1DB18A6A2";
paths = (
{
closed = 1;
nodes = (
"545 0 LINE",
"545 75 LINE",
"191 75 LINE",
"222 209 OFFCURVE",
"344 238 OFFCURVE",
"479 390 CURVE SMOOTH",
"518 434 OFFCURVE",
"543 481 OFFCURVE",
"543 548 CURVE SMOOTH",
"543 650 OFFCURVE",
"450 732 OFFCURVE",
"314 732 CURVE SMOOTH",
"179 732 OFFCURVE",
"86 650 OFFCURVE",
"86 548 CURVE",
"168 548 LINE",
"168 606 OFFCURVE",
"225 657 OFFCURVE",
"314 657 CURVE SMOOTH",
"404 657 OFFCURVE",
"461 606 OFFCURVE",
"461 540 CURVE SMOOTH",
"461 515 OFFCURVE",
"454 477 OFFCURVE",
"426 445 CURVE SMOOTH",
"316 318 OFFCURVE",
"131 265 OFFCURVE",
"75 0 CURVE"
);
}
);
width = 600;
}
);
leftMetricsKey = zero;
unicode = 0032;
},
{
glyphname = three;
lastChange = "2022-03-21 10:20:34 +0000";
layers = (
{
guideLines = (
{
position = "{-46, 548}";
},
{
position = "{-46, 195}";
}
);
layerId = "9DF75A15-0AF9-4389-BE6D-DBD1DB18A6A2";
paths = (
{
closed = 1;
nodes = (
"462 -15 OFFCURVE",
"560 78 OFFCURVE",
"560 195 CURVE SMOOTH",
"560 281 OFFCURVE",
"509 353 OFFCURVE",
"427 387 CURVE",
"501 417 OFFCURVE",
"546 478 OFFCURVE",
"546 548 CURVE SMOOTH",
"546 650 OFFCURVE",
"453 732 OFFCURVE",
"317 732 CURVE SMOOTH",
"182 732 OFFCURVE",
"89 650 OFFCURVE",
"89 548 CURVE",
"178 548 LINE",
"178 610 OFFCURVE",
"232 660 OFFCURVE",
"317 660 CURVE SMOOTH",
"403 660 OFFCURVE",
"457 610 OFFCURVE",
"457 545 CURVE SMOOTH",
"457 482 OFFCURVE",
"403 430 OFFCURVE",
"317 430 CURVE SMOOTH",
"257 430 LINE",
"256 351 LINE",
"317 351 LINE SMOOTH",
"417 351 OFFCURVE",
"480 286 OFFCURVE",
"480 205 CURVE SMOOTH",
"480 124 OFFCURVE",
"417 60 OFFCURVE",
"317 60 CURVE SMOOTH",
"218 60 OFFCURVE",
"155 124 OFFCURVE",
"155 193 CURVE",
"75 195 LINE",
"75 78 OFFCURVE",
"173 -15 OFFCURVE",
"317 -15 CURVE SMOOTH"
);
}
);
width = 635;
}
);
leftMetricsKey = zero;
rightMetricsKey = zero;
unicode = 0033;
},
{
glyphname = four;
lastChange = "2022-03-21 10:20:34 +0000";
layers = (
{
layerId = "9DF75A15-0AF9-4389-BE6D-DBD1DB18A6A2";
paths = (
{
closed = 1;
nodes = (
"393 183 LINE",
"393 0 LINE",
"472 0 LINE",
"472 183 LINE",
"557 183 LINE",
"557 258 LINE",
"472 258 LINE",
"472 715 LINE",
"393 715 LINE",
"40 258 LINE",
"40 183 LINE"
);
},
{
closed = 1;
nodes = (
"393 603 LINE",
"393 258 LINE",
"128 258 LINE"
);
}
);
width = 612;
}
);
rightMetricsKey = two;
unicode = 0034;
},
{
glyphname = five;
lastChange = "2022-03-21 10:20:34 +0000";
layers = (
{
guideLines = (
{
position = "{-15, 333}";
},
{
position = "{21, 167}";
}
);
layerId = "9DF75A15-0AF9-4389-BE6D-DBD1DB18A6A2";
paths = (
{
closed = 1;
nodes = (
"452 -10 OFFCURVE",
"550 97 OFFCURVE",
"550 232 CURVE SMOOTH",
"550 366 OFFCURVE",
"452 473 OFFCURVE",
"309 473 CURVE SMOOTH",
"252 473 OFFCURVE",
"202 456 OFFCURVE",
"162 427 CURVE",
"189 640 LINE",
"529 640 LINE",
"529 715 LINE",
"124 715 LINE",
"75 333 LINE",
"157 327 LINE",
"185 368 OFFCURVE",
"231 394 OFFCURVE",
"291 394 CURVE SMOOTH",
"409 394 OFFCURVE",
"472 322 OFFCURVE",
"472 232 CURVE SMOOTH",
"472 141 OFFCURVE",
"409 69 OFFCURVE",
"309 69 CURVE SMOOTH",
"234 69 OFFCURVE",
"179 110 OFFCURVE",
"157 169 CURVE",
"75 166 LINE",
"102 64 OFFCURVE",
"189 -10 OFFCURVE",
"309 -10 CURVE SMOOTH"
);
}
);
width = 625;
}
);
leftMetricsKey = zero;
rightMetricsKey = zero;
unicode = 0035;
},
{
glyphname = six;
lastChange = "2022-03-21 10:20:34 +0000";
layers = (
{
layerId = "9DF75A15-0AF9-4389-BE6D-DBD1DB18A6A2";
paths = (
{
closed = 1;
nodes = (
"480 -15 OFFCURVE",
"578 92 OFFCURVE",
"578 226 CURVE SMOOTH",
"578 361 OFFCURVE",
"480 468 OFFCURVE",
"336 468 CURVE SMOOTH",
"257 468 OFFCURVE",
"191 435 OFFCURVE",
"148 382 CURVE",
"154 576 OFFCURVE",
"224 658 OFFCURVE",
"336 658 CURVE SMOOTH",
"416 658 OFFCURVE",
"495 615 OFFCURVE",
"505 520 CURVE",
"580 521 LINE",
"564 663 OFFCURVE",
"456 730 OFFCURVE",
"336 730 CURVE SMOOTH",
"175 730 OFFCURVE",
"75 613 OFFCURVE",
"75 358 CURVE SMOOTH",
"75 272 OFFCURVE",
"86 202 OFFCURVE",
"107 146 CURVE",
"118 112 OFFCURVE",
"137 81 OFFCURVE",
"161 56 CURVE SMOOTH",
"205 8 OFFCURVE",
"265 -15 OFFCURVE",
"336 -15 CURVE SMOOTH"
);
},
{
closed = 1;
nodes = (
"168 320 OFFCURVE",
"233 394 OFFCURVE",
"335 394 CURVE SMOOTH",
"439 394 OFFCURVE",
"504 320 OFFCURVE",
"504 226 CURVE SMOOTH",
"504 133 OFFCURVE",
"439 59 OFFCURVE",
"335 59 CURVE SMOOTH",
"233 59 OFFCURVE",
"168 133 OFFCURVE",
"168 226 CURVE SMOOTH"
);
}
);
width = 655;
}
);
leftMetricsKey = zero;
rightMetricsKey = zero;
unicode = 0036;
},
{
glyphname = seven;
lastChange = "2022-03-21 10:20:34 +0000";
layers = (
{
layerId = "9DF75A15-0AF9-4389-BE6D-DBD1DB18A6A2";
paths = (
{
closed = 1;
nodes = (
"204 0 LINE",
"212 296 OFFCURVE",
"362 487 OFFCURVE",
"576 642 CURVE",
"576 715 LINE",
"36 715 LINE",
"36 640 LINE",
"461 640 LINE",
"255 498 OFFCURVE",
"118 243 OFFCURVE",
"118 0 CURVE"
);
}
);
width = 576;
}
);
leftMetricsKey = one;
unicode = 0037;
},
{
glyphname = eight;
lastChange = "2022-03-21 10:20:34 +0000";
layers = (
{
layerId = "9DF75A15-0AF9-4389-BE6D-DBD1DB18A6A2";
paths = (
{
closed = 1;
nodes = (
"478 -15 OFFCURVE",
"580 82 OFFCURVE",
"580 204 CURVE SMOOTH",
"580 294 OFFCURVE",
"526 370 OFFCURVE",
"438 404 CURVE",
"505 434 OFFCURVE",
"545 490 OFFCURVE",
"545 555 CURVE SMOOTH",
"545 653 OFFCURVE",
"457 731 OFFCURVE",
"327 731 CURVE SMOOTH",
"198 731 OFFCURVE",
"110 653 OFFCURVE",
"110 555 CURVE SMOOTH",
"110 490 OFFCURVE",
"150 434 OFFCURVE",
"216 404 CURVE",
"129 370 OFFCURVE",
"75 295 OFFCURVE",
"75 204 CURVE SMOOTH",
"75 82 OFFCURVE",
"177 -15 OFFCURVE",
"327 -15 CURVE SMOOTH"
);
},
{
closed = 1;
nodes = (
"152 302 OFFCURVE",
"221 370 OFFCURVE",
"327 370 CURVE SMOOTH",
"434 370 OFFCURVE",
"503 302 OFFCURVE",
"503 214 CURVE SMOOTH",
"503 129 OFFCURVE",
"434 61 OFFCURVE",
"327 61 CURVE SMOOTH",
"221 61 OFFCURVE",
"152 129 OFFCURVE",
"152 214 CURVE SMOOTH"
);
},
{
closed = 1;
nodes = (
"190 609 OFFCURVE",
"243 658 OFFCURVE",
"327 658 CURVE SMOOTH",
"412 658 OFFCURVE",
"465 609 OFFCURVE",
"465 548 CURVE SMOOTH",
"465 488 OFFCURVE",
"412 440 OFFCURVE",
"327 440 CURVE SMOOTH",
"243 440 OFFCURVE",
"190 488 OFFCURVE",
"190 548 CURVE SMOOTH"
);
}
);
width = 655;
}
);
leftMetricsKey = zero;
rightMetricsKey = zero;
unicode = 0038;
},
{
glyphname = nine;
lastChange = "2022-03-21 10:20:34 +0000";
layers = (
{
guideLines = (
{
position = "{646, 194}";
},
{
position = "{646, 247}";
}
);
layerId = "9DF75A15-0AF9-4389-BE6D-DBD1DB18A6A2";
paths = (
{
closed = 1;
nodes = (
"480 8 OFFCURVE",
"580 125 OFFCURVE",
"580 380 CURVE SMOOTH",
"580 466 OFFCURVE",
"569 536 OFFCURVE",
"548 592 CURVE",
"537 626 OFFCURVE",
"518 657 OFFCURVE",
"494 682 CURVE SMOOTH",
"450 730 OFFCURVE",
"390 753 OFFCURVE",
"319 753 CURVE SMOOTH",
"175 753 OFFCURVE",
"77 646 OFFCURVE",
"77 512 CURVE SMOOTH",
"77 377 OFFCURVE",
"175 270 OFFCURVE",
"319 270 CURVE SMOOTH",
"398 270 OFFCURVE",
"464 303 OFFCURVE",
"507 356 CURVE",
"501 162 OFFCURVE",
"431 80 OFFCURVE",
"319 80 CURVE SMOOTH",
"239 80 OFFCURVE",
"160 123 OFFCURVE",
"150 218 CURVE",
"75 217 LINE",
"91 75 OFFCURVE",
"199 8 OFFCURVE",
"319 8 CURVE SMOOTH"
);
},
{
closed = 1;
nodes = (
"151 605 OFFCURVE",
"216 679 OFFCURVE",
"320 679 CURVE SMOOTH",
"422 679 OFFCURVE",
"487 605 OFFCURVE",
"487 512 CURVE SMOOTH",
"487 418 OFFCURVE",
"422 344 OFFCURVE",
"320 344 CURVE SMOOTH",
"216 344 OFFCURVE",
"151 418 OFFCURVE",
"151 512 CURVE SMOOTH"
);
}
);
width = 655;
}
);
leftMetricsKey = zero;
rightMetricsKey = zero;
unicode = 0039;
},
{
glyphname = period;
lastChange = "2022-03-21 10:20:34 +0000";
layers = (
{
layerId = "9DF75A15-0AF9-4389-BE6D-DBD1DB18A6A2";
paths = (
{
closed = 1;
nodes = (
"155 0 OFFCURVE",
"178 23 OFFCURVE",
"178 51 CURVE SMOOTH",
"178 80 OFFCURVE",
"155 103 OFFCURVE",
"125 103 CURVE SMOOTH",
"95 103 OFFCURVE",
"73 80 OFFCURVE",
"73 51 CURVE SMOOTH",
"73 23 OFFCURVE",
"95 0 OFFCURVE",
"125 0 CURVE SMOOTH"
);
}
);
width = 251;
}
);
leftMetricsKey = n;
rightMetricsKey = n;
unicode = 002E;
},
{
glyphname = comma;
lastChange = "2022-03-21 10:20:34 +0000";
layers = (
{
layerId = "9DF75A15-0AF9-4389-BE6D-DBD1DB18A6A2";
paths = (
{
closed = 1;
nodes = (
"129 -123 OFFCURVE",
"178 -83 OFFCURVE",
"178 29 CURVE SMOOTH",
"178 50 LINE SMOOTH",
"178 79 OFFCURVE",
"155 103 OFFCURVE",
"125 103 CURVE SMOOTH",
"95 103 OFFCURVE",
"73 80 OFFCURVE",
"73 51 CURVE SMOOTH",
"73 23 OFFCURVE",
"95 0 OFFCURVE",
"125 0 CURVE SMOOTH",
"126 0 LINE",
"126 -2 LINE SMOOTH",
"126 -59 OFFCURVE",
"88 -77 OFFCURVE",
"75 -77 CURVE",
"75 -123 LINE"
);
}
);
width = 251;
}
);
leftMetricsKey = n;
rightMetricsKey = n;
unicode = 002C;
},
{
glyphname = semicolon;
lastChange = "2022-03-21 10:20:34 +0000";
layers = (
{
layerId = "9DF75A15-0AF9-4389-BE6D-DBD1DB18A6A2";
paths = (
{
closed = 1;
nodes = (
"138 -122 OFFCURVE",
"178 -90 OFFCURVE",
"178 49 CURVE SMOOTH",
"178 50 LINE SMOOTH",
"178 79 OFFCURVE",
"155 103 OFFCURVE",
"125 103 CURVE SMOOTH",
"95 103 OFFCURVE",
"73 80 OFFCURVE",
"73 51 CURVE SMOOTH",
"73 23 OFFCURVE",
"95 0 OFFCURVE",
"125 0 CURVE SMOOTH",
"126 0 LINE",
"126 -1 LINE SMOOTH",
"126 -85 OFFCURVE",
"75 -76 OFFCURVE",
"75 -76 CURVE",
"75 -122 LINE"
);
},
{
closed = 1;
nodes = (
"73 233 OFFCURVE",
"95 210 OFFCURVE",
"125 210 CURVE SMOOTH",
"155 210 OFFCURVE",
"178 233 OFFCURVE",
"178 261 CURVE SMOOTH",
"178 290 OFFCURVE",
"155 313 OFFCURVE",
"125 313 CURVE SMOOTH",
"95 313 OFFCURVE",
"73 290 OFFCURVE",
"73 261 CURVE SMOOTH"
);
}
);
width = 251;
}
);
leftMetricsKey = n;
rightMetricsKey = n;
unicode = 003B;
},
{
glyphname = exclam;
lastChange = "2022-03-21 10:20:34 +0000";
layers = (
{
layerId = "9DF75A15-0AF9-4389-BE6D-DBD1DB18A6A2";
paths = (
{
closed = 1;
nodes = (
"169 199 LINE",
"169 716 LINE",
"88 716 LINE",
"88 199 LINE"
);
},
{
closed = 1;
nodes = (
"75 22 OFFCURVE",
"98 -1 OFFCURVE",
"128 -1 CURVE SMOOTH",
"158 -1 OFFCURVE",
"181 22 OFFCURVE",
"181 50 CURVE SMOOTH",
"181 79 OFFCURVE",
"158 102 OFFCURVE",
"128 102 CURVE SMOOTH",
"98 102 OFFCURVE",
"75 79 OFFCURVE",
"75 50 CURVE SMOOTH"
);
}
);
width = 256;
}
);
leftMetricsKey = H;
rightMetricsKey = H;
unicode = 0021;
},
{
glyphname = question;
lastChange = "2022-03-21 10:20:34 +0000";
layers = (
{
layerId = "9DF75A15-0AF9-4389-BE6D-DBD1DB18A6A2";
paths = (
{
closed = 1;
nodes = (
"317 193 LINE",
"317 256 OFFCURVE",
"330 301 OFFCURVE",
"395 345 CURVE SMOOTH",
"443 377 OFFCURVE",
"510 427 OFFCURVE",
"510 532 CURVE SMOOTH",
"510 648 OFFCURVE",
"428 728 OFFCURVE",
"297 728 CURVE SMOOTH",
"174 728 OFFCURVE",
"71 648 OFFCURVE",
"71 498 CURVE",
"146 498 LINE",
"145 613 OFFCURVE",
"224 655 OFFCURVE",
"297 655 CURVE SMOOTH",
"380 655 OFFCURVE",
"438 613 OFFCURVE",
"438 544 CURVE SMOOTH",
"438 456 OFFCURVE",
"401 434 OFFCURVE",
"338 390 CURVE SMOOTH",
"272 344 OFFCURVE",
"244 277 OFFCURVE",
"244 193 CURVE"
);
},
{
closed = 1;
nodes = (
"228 22 OFFCURVE",
"250 -1 OFFCURVE",
"280 -1 CURVE SMOOTH",
"310 -1 OFFCURVE",
"333 22 OFFCURVE",
"333 50 CURVE SMOOTH",
"333 79 OFFCURVE",
"310 102 OFFCURVE",
"280 102 CURVE SMOOTH",
"250 102 OFFCURVE",
"228 79 OFFCURVE",
"228 50 CURVE SMOOTH"
);
}
);
width = 600;
}
);
unicode = 003F;
},
{
glyphname = hyphen;
lastChange = "2022-03-21 10:20:34 +0000";
layers = (
{
layerId = "9DF75A15-0AF9-4389-BE6D-DBD1DB18A6A2";
paths = (
{
closed = 1;
nodes = (
"374 223 LINE",
"374 290 LINE",
"110 290 LINE",
"110 223 LINE"
);
}
);
width = 498;
}
);
unicode = 002D;
},
{
glyphname = dieresiscomb;
lastChange = "2022-03-21 10:20:34 +0000";
layers = (
{
anchors = (
{
name = top;
position = "{309, 726}";
}
);
layerId = "9DF75A15-0AF9-4389-BE6D-DBD1DB18A6A2";
paths = (
{
closed = 1;
nodes = (
"390 634 OFFCURVE",
"411 655 OFFCURVE",
"411 682 CURVE SMOOTH",
"411 709 OFFCURVE",
"390 730 OFFCURVE",
"362 730 CURVE SMOOTH",
"334 730 OFFCURVE",
"313 709 OFFCURVE",
"313 682 CURVE SMOOTH",
"313 655 OFFCURVE",
"334 634 OFFCURVE",
"362 634 CURVE SMOOTH"
);
},
{
closed = 1;
nodes = (
"115 655 OFFCURVE",
"136 634 OFFCURVE",
"164 634 CURVE SMOOTH",
"192 634 OFFCURVE",
"213 655 OFFCURVE",
"213 682 CURVE SMOOTH",
"213 709 OFFCURVE",
"192 730 OFFCURVE",
"164 730 CURVE SMOOTH",
"136 730 OFFCURVE",
"115 709 OFFCURVE",
"115 682 CURVE SMOOTH"
);
}
);
width = 510;
}
);
unicode = 0308;
},
{
export = 0;
glyphname = unbenannt;
lastChange = "2022-03-21 10:20:34 +0000";
layers = (
{
layerId = "9DF75A15-0AF9-4389-BE6D-DBD1DB18A6A2";
paths = (
{
closed = 1;
nodes = (
"344 191 OFFCURVE",
"357 192 OFFCURVE",
"357 192 CURVE",
"357 259 LINE",
"334 259 OFFCURVE",
"313 265 OFFCURVE",
"313 304 CURVE",
"232 291 LINE",
"232 226 OFFCURVE",
"270 191 OFFCURVE",
"337 191 CURVE SMOOTH"
);
}
